<?xml version="1.0" encoding="utf-8"?>
<!-- Generator: Adobe Illustrator 25.2.3, SVG Export Plug-In . SVG Version: 6.00 Build 0)  -->
<svg version="1.1" id="Camada_1" xmlns="http://www.w3.org/2000/svg" xmlns:xlink="http://www.w3.org/1999/xlink" x="0px" y="0px"
	 viewBox="0 0 125 125" style="enable-background:new 0 0 125 125;" xml:space="preserve">
<style type="text/css">
	.st0{fill:none;stroke:#842535;stroke-width:8;stroke-miterlimit:10;}
	.st1{fill:#842535;}
	.st2{fill:none;stroke:#000000;stroke-width:8;stroke-miterlimit:10;}
</style>
<g id="Logomarca_1_">
	<path class="st0" d="M60.43,4.64l-22.18,70.4c-0.41,1.29,0.56,2.6,1.91,2.6h44.56c1.35,0,2.31,1.3,1.91,2.59l-12.2,39.41"/>
	<path class="st1" d="M64.43,4.64c0,2.21-1.79,4-4,4c-0.42,0-0.82-0.06-1.2-0.18c-1.62-0.51-2.8-2.03-2.8-3.82c0-2.21,1.79-4,4-4
		S64.43,2.43,64.43,4.64z"/>
	<circle class="st1" cx="74.43" cy="119.64" r="4"/>
	<path class="st2" d="M35.45,1.64"/>
	<path class="st0" d="M48.27,119.01l24.84-77.41c0.45-1.42-0.46-2.91-1.81-2.95l-21.87-0.37"/>
	<circle class="st1" cx="48.43" cy="118.64" r="4"/>
</g>
</svg>
