<?xml version="1.0" encoding="utf-8"?>
<!-- Generator: Adobe Illustrator 23.0.1, SVG Export Plug-In . SVG Version: 6.00 Build 0)  -->
<svg version="1.1" id="Plano_de_fundo" xmlns="http://www.w3.org/2000/svg" xmlns:xlink="http://www.w3.org/1999/xlink" x="0px"
	 y="0px" viewBox="0 0 180 180" style="enable-background:new 0 0 180 180;" xml:space="preserve">
<style type="text/css">
	.st0{fill:#EDEDED;}
	.st1{fill:none;stroke:#842535;stroke-width:8;stroke-miterlimit:10;}
	.st2{fill:#842535;}
	.st3{fill:none;stroke:#000000;stroke-width:8;stroke-miterlimit:10;}
	.st4{display:none;}
	.st5{display:inline;fill:#842535;}
	.st6{font-family:'Lato-Black';}
	.st7{font-size:16px;}
</style>
<g id="Plano_de_fundo_2_">
	<path class="st0" d="M143.81,169H36.19C22.28,169,11,157.72,11,143.81V36.19C11,22.28,22.28,11,36.19,11h107.62
		C157.72,11,169,22.28,169,36.19v107.62C169,157.72,157.72,169,143.81,169z"/>
</g>
<g id="Logomarca_1_">
	<path class="st1" d="M89,32l-22.18,70.4c-0.41,1.29,0.56,2.6,1.91,2.6h44.56c1.35,0,2.31,1.3,1.91,2.59L103,147"/>
	<circle class="st2" cx="89" cy="32" r="4"/>
	<circle class="st2" cx="103" cy="147" r="4"/>
	<path class="st3" d="M64.01,29"/>
	<path class="st1" d="M76.84,146.36l24.84-77.41c0.45-1.42-0.46-2.91-1.81-2.95L78,65.63"/>
	<circle class="st2" cx="77" cy="147" r="4"/>
</g>
<g id="Logo_escrita" class="st4">
	<text transform="matrix(1 0 0 1 52.332 161.3262)" class="st5 st6 st7">Bone Heal</text>
</g>
</svg>
